<?xml version="1.0" encoding="UTF-8"?>
<svg width="1200pt" height="1200pt" version="1.1" viewBox="0 0 1200 1200" xmlns="http://www.w3.org/2000/svg">
 <path d="m852.25 570.31c17.312-7.6406 29.5-24.906 29.5-44.953 0-22.484-15.355-41.422-36.074-47.23 7.9062-8.4258 12.832-19.773 12.832-32.18 0-25.855-21.164-47.309-47.047-47.309h-1.8281c15.09-7.1992 25.664-22.527 25.664-40.34 0-24.688-20.211-44.859-44.926-44.859h-272.4c-15.141 0-27.363 12.824-27.363 27.938v214.19c0 34.285 10.895 67.664 32.156 91.508 0.59375 0.67969 1.207 1.2617 1.8516 1.9141l105.07 135.09c3.2617 4.2031 5.7109 8.9766 7.1875 14.066l16.953 58.125c5.2383 17.965 21.688 30.293 40.402 30.293 22.621 0 41.191-17.902 42.074-40.523 1.6914-43.711-5.668-87.398-21.574-128.16l-17.027-40.844h153.81c29.406 0 53.477-23.941 53.477-53.367 0.003907-29.141-23.66-52.941-52.734-53.359z"/>
 <path d="m446.6 313.43h-131.76c-11.117 0-19.828 9.5312-19.828 20.676v266.57c0 11.145 8.707 19.953 19.828 19.953h131.76c11.121 0 20.012-8.8125 20.012-19.953v-266.57c0-11.141-8.8945-20.676-20.012-20.676z"/>
</svg>
