<?xml version="1.0" encoding="UTF-8"?>
<svg width="1200pt" height="1200pt" version="1.1" viewBox="0 0 1200 1200" xmlns="http://www.w3.org/2000/svg">
 <path d="m1173.3 541.97c7.1406-80.809-68.195-104.39-98.09-104.39-115.87-0.023437-231.78 0.011719-347.66-0.097656 16.68-36.301 37.02-132.55 11.398-265.16-10.117-52.43-41.051-87.301-80.461-86.605-31.754 0.55078-62.074 25.031-65.258 55.559-3.4805 33.562-11.723 81.359-19.523 114.05-24.961 104.5-158.46 242.46-242.88 290.59v510.47c57.266 32.363 119.36 43.691 185.69 42.434 104.79-2.0039 404.1-0.25391 458.34-0.61328 38.387-0.25391 76.668-18.562 95.074-64.906 25.152-63.254-39.684-94.895-39.684-94.895s70.98 3.5039 87.203-60.168c16.645-65.352-48.66-91.211-48.66-91.211 44.16-4.8242 72.434-16.32 83.125-56.125 12.562-46.883-17.594-82.094-65.328-102.47 7.2422-0.71094 80.164-12.492 86.719-86.461zm-915.97-77.172h-195c-19.883 0-36 16.117-36 36v577.5c0 19.883 16.117 36 36 36h195c19.883 0 36-16.117 36-36v-577.5c0-19.871-16.105-36-36-36z" fill-rule="evenodd"/>
</svg>
