<?xml version="1.0" encoding="UTF-8"?>
<svg width="1200pt" height="1200pt" version="1.1" viewBox="0 0 1200 1200" xmlns="http://www.w3.org/2000/svg">
 <path d="m291.56 606c26.461 44.699 135.73 210 303.94 210 168.23 0 277.48-165.3 303.94-210-26.461-44.699-135.71-210-303.94-210-168.2 0-277.48 165.3-303.94 210m303.94 258c-92.914 0-183.55-42.996-262.12-124.32-58.293-60.359-89.422-120.18-90.719-122.69-3.5508-6.8984-3.5508-15.086 0-21.984 1.2969-2.5078 32.426-62.328 90.719-122.69 78.566-81.324 169.2-124.32 262.12-124.32s183.56 42.996 262.13 124.32c58.281 60.359 89.41 120.18 90.707 122.69 3.5508 6.8984 3.5508 15.086 0 21.984-1.2969 2.5078-32.426 62.328-90.707 122.69-78.566 81.324-169.21 124.32-262.13 124.32" fill-rule="evenodd"/>
 <path d="m595.5 532.5c-40.523 0-73.5 32.977-73.5 73.5s32.977 73.5 73.5 73.5 73.5-32.977 73.5-73.5-32.977-73.5-73.5-73.5m0 195c-66.996 0-121.5-54.504-121.5-121.5s54.504-121.5 121.5-121.5 121.5 54.504 121.5 121.5-54.504 121.5-121.5 121.5" fill-rule="evenodd"/>
</svg>
